<svg width="117" height="66" viewBox="0 0 117 66" fill="none" xmlns="http://www.w3.org/2000/svg">
<path d="M78.7383 8.11973L81.8529 50.69L79.5877 50.6429C72.1123 50.502 64.8068 52.1448 58.4074 55.4303C52.0081 52.1448 44.7027 50.6429 37.227 50.6429C27.8262 50.6429 20.2942 52.4735 11.743 55.3835L18.199 11.2173C24.0886 9.19906 30.8845 8.11973 37.2272 8.11973C45.7221 8.11973 52.4612 10.3726 58.4076 15.3946C64.1274 10.5604 70.5832 8.26046 78.7383 8.11973ZM116.398 65.6624C111.132 65.6624 106.601 64.7706 101.844 62.9871C94.7652 60.3119 87.403 58.716 79.5879 58.716C71.5461 58.716 64.1274 60.922 58.4076 65.6624C52.6877 60.9218 45.269 58.716 37.2272 58.716C29.4122 58.716 22.05 60.3119 14.9711 62.9871C10.3839 64.6767 5.74005 65.6624 0.700028 65.6624H0.416748L9.1947 5.96074C17.293 2.15899 27.147 0 36.4911 0C44.1363 0 52.0083 1.3141 58.4076 4.97512C64.8068 1.3141 72.6788 0 80.3241 0C89.6682 0 99.5221 2.15899 107.62 5.96074L116.398 65.6624ZM107.451 58.0118L100.428 10.091C94.0855 7.6972 86.5536 6.42995 79.5879 6.42995C71.6594 6.42995 64.2407 8.49507 58.4076 13.0478C52.5744 8.49507 45.1559 6.42995 37.2272 6.42995C30.2616 6.42995 22.7296 7.6972 16.3869 10.091L9.3645 58.0118C19.1052 54.6796 26.4673 52.2859 37.2272 52.2859C44.9857 52.2859 51.8383 53.9285 58.4076 57.3549C64.9769 53.9285 71.8292 52.2859 79.5879 52.2859C90.3478 52.2859 97.71 54.6796 107.451 58.0118Z" fill="#2D9CDB"/>
</svg>
