<svg width="96" height="66" viewBox="0 0 96 66" fill="none" xmlns="http://www.w3.org/2000/svg">
<path d="M64.8178 8.11973L67.3955 50.69L65.5208 50.6429C59.3342 50.502 53.2884 52.1448 47.9922 55.4303C42.6963 52.1448 36.6504 50.6429 30.4637 50.6429C22.6837 50.6429 16.4503 52.4735 9.37344 55.3835L14.7163 11.2173C19.5905 9.19906 25.2147 8.11973 30.4638 8.11973C37.4941 8.11973 43.0713 10.3726 47.9924 15.3946C52.7261 10.5604 58.0688 8.26046 64.8178 8.11973ZM95.9848 65.6624C91.6263 65.6624 87.8768 64.7706 83.9399 62.9871C78.0815 60.3119 71.9886 58.716 65.521 58.716C58.8657 58.716 52.7261 60.922 47.9924 65.6624C43.2587 60.9218 37.1191 58.716 30.4638 58.716C23.9962 58.716 17.9034 60.3119 12.045 62.9871C8.24871 64.6767 4.40549 65.6624 0.234438 65.6624H0L7.26451 5.96074C13.9666 2.15899 22.1216 0 29.8546 0C36.1817 0 42.6965 1.3141 47.9924 4.97512C53.2884 1.3141 59.8031 0 66.1302 0C73.8633 0 82.0182 2.15899 88.7203 5.96074L95.9848 65.6624ZM88.5798 58.0118L82.7682 10.091C77.519 7.6972 71.2856 6.42995 65.521 6.42995C58.9594 6.42995 52.8198 8.49507 47.9924 13.0478C43.165 8.49507 37.0255 6.42995 30.4638 6.42995C24.6992 6.42995 18.4658 7.6972 13.2167 10.091L7.40504 58.0118C15.4663 54.6796 21.5591 52.2859 30.4638 52.2859C36.8847 52.2859 42.5558 53.9285 47.9924 57.3549C53.4291 53.9285 59.1 52.2859 65.521 52.2859C74.4257 52.2859 80.5186 54.6796 88.5798 58.0118Z" fill="#9B51E0"/>
</svg>
