<svg width="19" height="19" viewBox="0 0 19 19" fill="none" xmlns="http://www.w3.org/2000/svg">
<path fill-rule="evenodd" clip-rule="evenodd" d="M17.2636 0.29289C16.8731 -0.09763 16.2399 -0.09763 15.8494 0.29289L14.977 1.16525C13.8619 0.63254 12.4858 0.82801 11.5622 1.75165L0.955566 12.3582L6.61238 18.0151L17.219 7.4085C18.1427 6.48486 18.3381 5.1088 17.8054 3.99367L18.6778 3.12132C19.0683 2.7308 19.0683 2.09763 18.6778 1.70711L17.2636 0.29289ZM12.9956 8.8035L6.61238 15.1867L3.784 12.3582L10.1672 5.9751L12.9956 8.8035ZM14.8139 6.98525L15.8048 5.99429C16.1954 5.60376 16.1954 4.9706 15.8048 4.58007L14.3906 3.16586C14.0001 2.77534 13.3669 2.77534 12.9764 3.16586L11.9854 4.15683L14.8139 6.98525Z" fill="#E0E0E0"/>
</svg>
