<svg width="71" height="49" viewBox="0 0 71 49" fill="none" xmlns="http://www.w3.org/2000/svg">
<path d="M47.6463 6.71788L49.5071 37.351L48.1538 37.3172C43.6877 37.2158 39.3232 38.3979 35.4999 40.7621C31.6768 38.3979 27.3122 37.3172 22.846 37.3172C17.2296 37.3172 12.7297 38.6344 7.62094 40.7284L11.478 8.94688C14.9967 7.49455 19.0567 6.71788 22.8461 6.71788C27.9213 6.71788 31.9474 8.33902 35.5 11.9528C38.9173 8.47413 42.7742 6.81915 47.6463 6.71788ZM70.1458 48.125C66.9994 48.125 64.2926 47.4833 61.4505 46.1999C57.2213 44.2749 52.8229 43.1265 48.1539 43.1265C43.3495 43.1265 38.9173 44.7139 35.5 48.125C32.0828 44.7138 27.6506 43.1265 22.8461 43.1265C18.1771 43.1265 13.7787 44.2749 9.54953 46.1999C6.809 47.4158 4.03458 48.125 1.02349 48.125H0.854248L6.09851 5.16429C10.9367 2.42859 16.8238 0.875 22.4063 0.875C26.9739 0.875 31.6769 1.82062 35.5 4.45505C39.3232 1.82062 44.0262 0.875 48.5937 0.875C54.1762 0.875 60.0633 2.42859 64.9015 5.16429L70.1458 48.125ZM64.8001 42.6198L60.6047 8.13637C56.8153 6.41383 52.3154 5.50193 48.1539 5.50193C43.4171 5.50193 38.9849 6.98797 35.5 10.2641C32.0151 6.98797 27.583 5.50193 22.8461 5.50193C18.6846 5.50193 14.1847 6.41383 10.3954 8.13637L6.19996 42.6198C12.0194 40.2219 16.4178 38.4994 22.8461 38.4994C27.4813 38.4994 31.5753 39.6814 35.5 42.147C39.4247 39.6814 43.5186 38.4994 48.1539 38.4994C54.5823 38.4994 58.9807 40.2219 64.8001 42.6198Z" fill="white"/>
</svg>
